<svg x="0" y="0" width="56.39999999999994" height="56.60320550777285" filtersec="colorsb8918059207" class="image-svg-svg primary" style="overflow: visible;"><svg xmlns="http://www.w3.org/2000/svg" viewBox="0.0049103498458862305 -0.0011898577213287354 91.64237213134766 91.9723129272461"><title>资源 57</title><path d="M3.25.24C4.9-.14 6.14.74 7.38 2Q44.16 38.85 81 75.66c3.21 3.22 6.34 6.52 9.57 9.71.95.94 1.42 4.53.79 5.74a1.64 1.64 0 0 1-.57.6c-.94.54-4.36.18-5.25-.51a69.46 69.46 0 0 1-5.62-5.5c-3.53-3.43-7-6.92-10.46-10.4C63.62 69.45 57.85 63.57 52 57.74c-5.53-5.53-11.12-11-16.66-16.51-4.52-4.49-9-9-13.52-13.51-4.67-4.67-9.41-9.27-14-14C5.6 11.31 3.06 9.21 1 6.69-.55 4.89.14 2.87.27.92.3.41.89.26 1.38.24s1.13 0 1.87 0zM20.74.23c3-.89 5.28.91 7.69 3.34Q59 34.42 89.88 65.07a5 5 0 0 1 1.68 4.08c-.11 1.87 0 3.75 0 5.63 0 .63.23 1.45-.48 1.78s-1.16-.44-1.59-.87Q80.6 66.85 71.75 58L37.91 24.22Q27 13.29 16.07 2.31c-.27-.26-.54-.52-.79-.8-.65-.74-.46-1.23.5-1.27 1.46-.05 2.91-.01 4.96-.01zM.08 20.69v-3.8c0-.45-.1-1 .45-1.23s.84.31 1.16.63l10 9.93 17 17L45.45 60Q54 68.57 62.56 77.12l13 13c.32.32.8.64.59 1.18s-.76.54-1.21.54c-2.58 0-5.16.05-7.74 0-1.13 0-1.81-.9-2.54-1.63Q45.36 71 26.06 51.66c-8-8-16-16.08-24.11-24a5.21 5.21 0 0 1-1.89-4.72 21.09 21.09 0 0 0 .02-2.25z" fill="#fdaf16"></path><path d="M.33 63.37V37.06c0-.48-.24-1.16.37-1.37s.78.41 1.11.73c1.74 1.72 3.44 3.47 5.19 5.16a2.9 2.9 0 0 1 .93 2.25v45.85c0 1.76-.24 2-1.93 2H2.34c-1.66 0-2-.33-2-2V63.37z" fill="#ee1d22"></path><path d="M91.27 28.8v27.02c0 .43 0 .8-.41 1s-.7-.17-1-.43c-1.76-1.75-3.5-3.53-5.28-5.26a2.94 2.94 0 0 1-.67-2.35V13 2.17c0-1.26.4-1.82 1.71-1.74s2.53 0 3.8 0c1.66 0 1.84.19 1.84 1.89q.02 13.26.01 26.48z" fill="#fdaf16"></path><path d="M77.74 22.12v19.54c0 .57.25 1.35-.48 1.62-.58.21-1-.35-1.43-.73-1.67-1.63-3.32-3.3-5-5a3.43 3.43 0 0 1-1-2.54V2.24c0-1.78.28-2 2-2.07h3.8c1.75 0 2 .29 2 2.08q.13 9.96.11 19.87z" fill="#ee1d22"></path><path d="M14.14 70.42V51.58a10.91 10.91 0 0 1 0-1.4c.12-.91.66-1.21 1.33-.57 2.09 2 4.12 4.09 6.15 6.17a2.15 2.15 0 0 1 .38 1.61v32.32c0 1.76-.39 2.15-2.14 2.21q-1.75.06-3.51 0c-1.89-.06-2.2-.38-2.21-2.25z" fill="#fdaf16"></path><path d="M63.67 15.1v12.64c0 .53.2 1.24-.48 1.47s-.89-.42-1.24-.77c-1.7-1.67-3.36-3.39-5.08-5.05a3.19 3.19 0 0 1-1.06-2.48V2.51c0-1.92.38-2.27 2.33-2.3h3.09c2.24 0 2.43.19 2.44 2.38zM28 77.32v-12c0-.77-.13-1.82.65-2.15s1.22.68 1.74 1.17c1.45 1.4 2.84 2.86 4.29 4.26a3.58 3.58 0 0 1 1.18 2.74v18c0 2-.35 2.3-2.29 2.31h-3.65c-1.44.06-1.91-.73-1.9-2z" fill="#ee1d22"></path></svg></svg>
